<?xml version="1.0" encoding="UTF-8" standalone="no"?>
<svg
   xmlns:dc="http://purl.org/dc/elements/1.1/"
   xmlns:cc="http://creativecommons.org/ns#"
   xmlns:rdf="http://www.w3.org/1999/02/22-rdf-syntax-ns#"
   xmlns:svg="http://www.w3.org/2000/svg"
   xmlns="http://www.w3.org/2000/svg"
   viewBox="0 0 448.51999 154.69333"
   height="154.69333"
   width="448.51999"
   xml:space="preserve"
   id="svg2"
   version="1.1"><metadata
     id="metadata8"><rdf:RDF><cc:Work
         rdf:about=""><dc:format>image/svg+xml</dc:format><dc:type
           rdf:resource="http://purl.org/dc/dcmitype/StillImage" /></cc:Work></rdf:RDF></metadata><defs
     id="defs6" /><g
     transform="matrix(1.3333333,0,0,-1.3333333,0,154.69333)"
     id="g10"><g
       transform="scale(0.1)"
       id="g12"><path
         id="path14"
         style="fill:#4684cd;fill-opacity:1;fill-rule:nonzero;stroke:none"
         d="m 2288.5,583.969 c 0,271.426 219.8,491.491 490.9,491.491 231.41,0 425.16,-160.202 477.09,-375.827 h -119.68 c -48.72,151.074 -190.32,260.398 -357.41,260.398 -207.41,0 -375.58,-168.426 -375.58,-376.062 0,-199.297 154.94,-362.305 350.77,-375.137 V 98.2383 h 93 v -0.418 h 76.31 c 128.31,0 233.14,59.8787 233.14,211.4027 0,151.465 -91,211.425 -216.13,211.425 h -93.32 v -92.5 h -102.42 v 192.918 h 226.67 c 150.95,0 292.33,-100.418 292.33,-311.843 0,-22.305 -2.02,-43.282 -5.38,-63.028 66.13,94.336 105.06,209.102 105.06,333.133 0,320.805 -259.71,580.842 -580.05,580.842 -320.38,0 -580.09,-260.037 -580.09,-580.842 0,-307.762 239.2,-559.4764 541.46,-579.328 V 93.7695 C 2490.09,111.328 2288.5,323.996 2288.5,583.969" /><path
         id="path16"
         style="fill:#ffffff;fill-opacity:1;fill-rule:nonzero;stroke:none"
         d="m 354.578,570.004 c 0,-76.348 -39.742,-112.207 -101.312,-112.207 -60.786,0 -100.532,37.422 -100.532,116.113 V 877.055 L 0,877.055 V 570.797 C 0,400.133 97.4063,321.41 251.715,321.41 c 155.078,0 255.598,77.942 255.598,253.289 V 877.055 H 354.578 V 570.004" /><path
         id="path18"
         style="fill:#ffffff;fill-opacity:1;fill-rule:nonzero;stroke:none"
         d="m 865.816,458.59 c -76.367,0 -130.148,63.894 -130.148,145.73 v 1.535 c 0,79.5 53.781,144.961 130.148,144.961 52.215,0 88.063,-25.734 119.235,-63.91 l 113.779,88.071 C 1050.5,841.215 978.813,887.973 867.379,887.973 702.164,887.973 580.59,763.285 580.59,604.32 v -1.574 c 0,-162.867 125.469,-282.105 281.328,-282.105 120.008,0 189.372,52.214 240.802,123.125 L 988.941,524.809 C 956.215,485.07 922.699,458.59 865.816,458.59" /><path
         id="path20"
         style="fill:#ffffff;fill-opacity:1;fill-rule:nonzero;stroke:none"
         d="m 1187.69,331.547 h 151.17 V 877.055 H 1187.69 V 331.547" /><path
         id="path22"
         style="fill:#ffffff;fill-opacity:1;fill-rule:nonzero;stroke:none"
         d="m 1678.7,637.082 c 28.88,0 57.78,6.594 83.21,20.727 v 109.273 h -77.57 v -24.488 h 51.18 v -68.125 c -16.32,-8.176 -37.35,-12.903 -55.25,-12.903 -54.65,0 -92.02,39.258 -92.02,92.325 0,54.023 38.63,92.336 89.5,92.336 22.6,0 45.54,-9.114 60.59,-25.442 l 19.8,20.735 c -21.04,21.343 -49.31,29.207 -78.5,29.207 -66.56,0 -119.64,-46.805 -119.64,-116.836 0,-69.7 49.6,-116.809 118.7,-116.809" /><path
         id="path24"
         style="fill:#ffffff;fill-opacity:1;fill-rule:nonzero;stroke:none"
         d="m 1893.49,767.082 1.57,24.816 c -3.44,1.25 -6.89,1.575 -10.04,1.575 -24.19,0 -42.4,-13.508 -48.99,-27.95 h -0.63 c 0,8.172 -0.62,16.317 -0.62,24.188 h -23.24 c 0,-9.746 1.24,-21.367 1.24,-34.863 v -112.11 h 24.51 v 71.614 c 0,33.589 13.18,54.628 43.02,54.628 4.39,0 9.11,-0.636 13.18,-1.898" /><path
         id="path26"
         style="fill:#ffffff;fill-opacity:1;fill-rule:nonzero;stroke:none"
         d="m 2016.9,703.969 c -0.62,-23.867 -15.07,-44.27 -43.33,-44.27 -18.52,0 -32.34,6.906 -32.34,25.442 0,19.773 20.09,28.254 51.19,28.254 h 24.48 z m 24.49,-35.801 v 63.125 c 0,41.445 -18.2,62.18 -61.53,62.18 -21.35,0 -43.33,-7.231 -58.42,-22.618 l 15.4,-16.007 c 11.61,10.675 27.94,16.007 43.63,16.007 22.94,0 36.43,-11.007 36.43,-32.343 v -4.407 h -9.41 c -36.11,0 -92.64,-2.812 -92.64,-51.472 0,-28.598 24.8,-43.664 54.63,-43.664 22.3,0 38.64,10.664 48.38,25.754 h 0.61 c 0,-6.274 0,-15.395 1.57,-21.985 h 23.57 c -1.27,7.539 -2.22,16.961 -2.22,25.43" /><path
         id="path28"
         style="fill:#ffffff;fill-opacity:1;fill-rule:nonzero;stroke:none"
         d="m 2156.33,661.566 c -31.72,0 -52.14,23.868 -52.14,54.661 0,30.781 20.42,54.628 52.14,54.628 31.73,0 52.13,-23.847 52.13,-54.628 0,-30.793 -20.4,-54.661 -52.13,-54.661 z m 52.13,106.778 h -0.63 c -13.48,15.691 -31.41,25.129 -52.76,25.129 -46.15,0 -77.24,-32.668 -77.24,-77.246 0,-43.965 32.34,-77.258 73.47,-77.258 26.39,0 47.43,13.183 56.53,29.844 h 0.63 v -26.075 h 24.48 v 237.395 h -24.48 V 768.344" /><path
         id="path30"
         style="fill:#ffffff;fill-opacity:1;fill-rule:nonzero;stroke:none"
         d="m 2383.07,666.93 h 0.63 c 0,-8.176 0.63,-16.352 0.63,-24.192 h 23.23 c 0,9.746 -1.26,21.348 -1.26,34.856 v 112.117 h -24.48 v -71.609 c 0,-33.606 -13.83,-56.536 -45.55,-56.536 -22.92,0 -33.58,15.411 -33.58,39.903 v 88.242 h -24.49 v -90.762 c 0,-35.5 17.26,-59.98 55.89,-59.98 24.19,0 42.39,13.515 48.98,27.961" /><path
         id="path32"
         style="fill:#ffffff;fill-opacity:1;fill-rule:nonzero;stroke:none"
         d="m 2546.35,703.969 c -0.62,-23.867 -15.07,-44.27 -43.32,-44.27 -18.53,0 -32.35,6.906 -32.35,25.442 0,19.773 20.09,28.254 51.18,28.254 h 24.49 z m -9.41,30.136 c -36.1,0 -92.64,-2.812 -92.64,-51.472 0,-28.598 24.83,-43.664 54.65,-43.664 22.28,0 38.61,10.664 48.35,25.754 h 0.64 c 0,-6.274 0,-15.395 1.57,-21.985 h 23.54 c -1.26,7.539 -2.2,16.961 -2.2,25.43 v 63.125 c 0,41.445 -18.21,62.18 -61.54,62.18 -21.37,0 -43.33,-7.231 -58.41,-22.618 l 15.39,-16.007 c 11.62,10.675 27.95,16.007 43.64,16.007 22.95,0 36.42,-11.007 36.42,-32.343 v -4.407 h -9.41" /><path
         id="path34"
         style="fill:#ffffff;fill-opacity:1;fill-rule:nonzero;stroke:none"
         d="m 2674.79,661.566 c -21.64,0 -21.96,15.086 -21.96,33.938 v 73.476 h 43.32 v 20.731 h -43.32 v 41.758 h -24.5 V 789.711 H 2596.3 V 768.98 h 32.03 v -80.714 c 0,-30.457 5.66,-49.297 40.5,-49.297 9.11,0 20.09,1.57 28.58,5.332 l -0.94,22.304 c -6.6,-3.464 -14.44,-5.039 -21.68,-5.039" /><path
         id="path36"
         style="fill:#ffffff;fill-opacity:1;fill-rule:nonzero;stroke:none"
         d="m 2744.2,729.406 c 3.14,24.817 21.05,41.449 48.03,41.449 27.02,0 43.36,-16.632 44.29,-41.449 z m 118.71,-12.879 c 0,48.68 -28.27,76.946 -69.72,76.946 -43.33,0 -75.36,-31.719 -75.36,-77.246 0,-42.715 28.26,-77.258 74.4,-77.258 27.35,0 48.06,8.152 65.33,30.461 l -18.52,14.453 c -11.62,-14.77 -25.74,-22.317 -46.81,-22.317 -26.67,0 -46.14,21.68 -48.03,47.11 h 118.71 v 7.851" /><path
         id="path38"
         style="fill:#ffffff;fill-opacity:1;fill-rule:nonzero;stroke:none"
         d="m 1645.41,353.207 h -50.25 v 173.32 h 50.25 c 50.87,0 89.5,-25.742 89.5,-86.672 0,-60.906 -38.63,-86.648 -89.5,-86.648 z m 8.8,197.82 h -85.42 V 328.703 h 85.42 c 43.63,0 108.95,29.223 108.95,111.152 0,81.965 -65.32,111.172 -108.95,111.172" /><path
         id="path40"
         style="fill:#ffffff;fill-opacity:1;fill-rule:nonzero;stroke:none"
         d="m 1803.38,328.703 h 24.5 v 146.965 h -24.5 V 328.703" /><path
         id="path42"
         style="fill:#ffffff;fill-opacity:1;fill-rule:nonzero;stroke:none"
         d="m 1815.61,551.027 c -10.04,0 -17.9,-8.164 -17.9,-17.886 0,-10.383 7.53,-17.911 17.9,-17.911 10.38,0 17.92,7.528 17.92,17.911 0,9.722 -7.85,17.886 -17.92,17.886" /><path
         id="path44"
         style="fill:#ffffff;fill-opacity:1;fill-rule:nonzero;stroke:none"
         d="m 1931.48,360.426 h -0.61 l -45.85,115.242 h -28.57 l 59.97,-146.965 h 27 l 58.1,146.965 h -26.39 l -43.65,-115.242" /><path
         id="path46"
         style="fill:#ffffff;fill-opacity:1;fill-rule:nonzero;stroke:none"
         d="m 2042.34,551.027 c -10.04,0 -17.89,-8.164 -17.89,-17.886 0,-10.383 7.53,-17.911 17.89,-17.911 10.36,0 17.91,7.528 17.91,17.911 0,9.722 -7.85,17.886 -17.91,17.886" /><path
         id="path48"
         style="fill:#ffffff;fill-opacity:1;fill-rule:nonzero;stroke:none"
         d="m 2030.09,328.703 h 24.5 v 146.965 h -24.5 V 328.703" /><path
         id="path50"
         style="fill:#ffffff;fill-opacity:1;fill-rule:nonzero;stroke:none"
         d="m 2154.76,415.043 c -19.46,3.789 -37.06,9.121 -37.06,21.379 0,13.808 15.4,20.406 28.92,20.406 14.42,0 24.8,-7.234 31.07,-17.598 l 20.42,13.5 c -10.05,18.844 -29.22,26.7 -49.94,26.7 -27.34,0 -54.95,-14.758 -54.95,-43.332 0,-30.457 23.85,-36.414 51.8,-42.703 15.71,-3.457 31.4,-7.532 31.4,-23.235 0,-16.023 -16.93,-22.617 -32.33,-22.617 -17.27,0 -27.94,7.852 -37.68,19.785 l -19.48,-15.078 c 14.46,-20.723 32.35,-27.324 57.16,-27.324 29.21,0 58.73,12.871 58.73,46.172 0,29.531 -21.98,38.925 -48.06,43.945" /><path
         id="path52"
         style="fill:#ffffff;fill-opacity:1;fill-rule:nonzero;stroke:none"
         d="m 2239.23,328.703 h 24.5 v 146.965 h -24.5 V 328.703" /><path
         id="path54"
         style="fill:#ffffff;fill-opacity:1;fill-rule:nonzero;stroke:none"
         d="m 2251.49,551.027 c -10.05,0 -17.9,-8.164 -17.9,-17.886 0,-10.383 7.55,-17.911 17.9,-17.911 10.36,0 17.89,7.528 17.89,17.911 0,9.722 -7.84,17.886 -17.89,17.886" /><path
         id="path56"
         style="fill:#ffffff;fill-opacity:1;fill-rule:nonzero;stroke:none"
         d="m 2382.45,347.543 c -31.74,0 -52.14,23.855 -52.14,54.648 0,30.762 20.4,54.637 52.14,54.637 31.71,0 52.13,-23.875 52.13,-54.637 0,-30.793 -20.42,-54.648 -52.13,-54.648 z m 0,131.887 c -45.22,0 -78.53,-31.407 -78.53,-77.239 0,-45.859 33.31,-77.265 78.53,-77.265 45.2,0 78.49,31.406 78.49,77.265 0,45.832 -33.29,77.239 -78.49,77.239" /><path
         id="path58"
         style="fill:#ffffff;fill-opacity:1;fill-rule:nonzero;stroke:none"
         d="m 2571.17,479.43 c -24.17,0 -42.4,-13.496 -48.99,-27.942 h -0.62 c 0,8.164 -0.64,16.328 -0.64,24.18 h -23.23 c 0,-9.734 1.26,-21.367 1.26,-34.852 V 328.703 h 24.48 v 71.594 c 0,33.613 13.83,56.531 45.54,56.531 22.92,0 33.6,-15.387 33.6,-39.883 v -88.242 h 24.49 v 90.754 c 0,35.488 -17.27,59.973 -55.89,59.973" /></g></g></svg>